<svg width="200px"  height="200px"  xmlns="http://www.w3.org/2000/svg" viewBox="0 0 100 100" preserveAspectRatio="xMidYMid" class="lds-wedges" style="background: none;"><g transform="translate(50,50)"><g ng-attr-transform="scale({{config.scale}})" transform="scale(0.7)"><g transform="translate(-50,-50)"><g transform="rotate(161.903 50 50)"><animateTransform attributeName="transform" type="rotate" calcMode="linear" values="0 50 50;360 50 50" keyTimes="0;1" dur="1.45s" begin="0s" repeatCount="indefinite"></animateTransform><path ng-attr-fill-opacity="{{config.opacity}}" ng-attr-fill="{{config.c1}}" d="M50 50L50 0A50 50 0 0 1 100 50Z" fill-opacity="0.8" fill="#55baa6"></path></g><g transform="rotate(211.428 50 50)"><animateTransform attributeName="transform" type="rotate" calcMode="linear" values="0 50 50;360 50 50" keyTimes="0;1" dur="1.9333333333333333s" begin="0s" repeatCount="indefinite"></animateTransform><path ng-attr-fill-opacity="{{config.opacity}}" ng-attr-fill="{{config.c2}}" d="M50 50L50 0A50 50 0 0 1 100 50Z" transform="rotate(90 50 50)" fill-opacity="0.8" fill="#f9b233"></path></g><g transform="rotate(260.952 50 50)"><animateTransform attributeName="transform" type="rotate" calcMode="linear" values="0 50 50;360 50 50" keyTimes="0;1" dur="2.9s" begin="0s" repeatCount="indefinite"></animateTransform><path ng-attr-fill-opacity="{{config.opacity}}" ng-attr-fill="{{config.c3}}" d="M50 50L50 0A50 50 0 0 1 100 50Z" transform="rotate(180 50 50)" fill-opacity="0.8" fill="#64c5e2"></path></g><g transform="rotate(310.476 50 50)"><animateTransform attributeName="transform" type="rotate" calcMode="linear" values="0 50 50;360 50 50" keyTimes="0;1" dur="5.8s" begin="0s" repeatCount="indefinite"></animateTransform><path ng-attr-fill-opacity="{{config.opacity}}" ng-attr-fill="{{config.c4}}" d="M50 50L50 0A50 50 0 0 1 100 50Z" transform="rotate(270 50 50)" fill-opacity="0.8" fill="#55baa6"></path></g></g></g></g></svg>